<mxfile host="app.diagrams.net" modified="2023-11-11T09:36:55.711Z" agent="Mozilla/5.0 (Windows NT 10.0; Win64; x64) AppleWebKit/537.36 (KHTML, like Gecko) Chrome/119.0.0.0 Safari/537.36" etag="5ha7ioFLqS0r2nHAqIR9" version="22.1.0" type="github">
  <diagram id="R2lEEEUBdFMjLlhIrx00" name="Page-1">
    <mxGraphModel dx="2060" dy="1156" grid="1" gridSize="10" guides="1" tooltips="1" connect="1" arrows="1" fold="1" page="1" pageScale="1" pageWidth="850" pageHeight="1100" math="0" shadow="0" extFonts="Permanent Marker^https://fonts.googleapis.com/css?family=Permanent+Marker">
      <root>
        <mxCell id="0" />
        <mxCell id="1" parent="0" />
        <mxCell id="C-vyLk0tnHw3VtMMgP7b-12" value="" style="edgeStyle=entityRelationEdgeStyle;endArrow=ERzeroToMany;startArrow=ERone;endFill=1;startFill=0;" parent="1" edge="1">
          <mxGeometry width="100" height="100" relative="1" as="geometry">
            <mxPoint x="700" y="165" as="sourcePoint" />
            <mxPoint x="700" y="355" as="targetPoint" />
          </mxGeometry>
        </mxCell>
        <mxCell id="GUWvoCoq2w1GxgW7WVkz-2" value="customer" style="shape=table;startSize=30;container=1;collapsible=1;childLayout=tableLayout;fixedRows=1;rowLines=0;fontStyle=1;align=center;resizeLast=1;" vertex="1" parent="1">
          <mxGeometry x="-310" y="140" width="270" height="180" as="geometry" />
        </mxCell>
        <mxCell id="GUWvoCoq2w1GxgW7WVkz-3" value="" style="shape=tableRow;horizontal=0;startSize=0;swimlaneHead=0;swimlaneBody=0;fillColor=none;collapsible=0;dropTarget=0;points=[[0,0.5],[1,0.5]];portConstraint=eastwest;strokeColor=inherit;top=0;left=0;right=0;bottom=1;" vertex="1" parent="GUWvoCoq2w1GxgW7WVkz-2">
          <mxGeometry y="30" width="270" height="30" as="geometry" />
        </mxCell>
        <mxCell id="GUWvoCoq2w1GxgW7WVkz-4" value="PK" style="shape=partialRectangle;overflow=hidden;connectable=0;fillColor=none;strokeColor=inherit;top=0;left=0;bottom=0;right=0;fontStyle=1;" vertex="1" parent="GUWvoCoq2w1GxgW7WVkz-3">
          <mxGeometry width="30" height="30" as="geometry">
            <mxRectangle width="30" height="30" as="alternateBounds" />
          </mxGeometry>
        </mxCell>
        <mxCell id="GUWvoCoq2w1GxgW7WVkz-5" value="customer_id INT  AUTO_INCREMENT" style="shape=partialRectangle;overflow=hidden;connectable=0;fillColor=none;align=left;strokeColor=inherit;top=0;left=0;bottom=0;right=0;spacingLeft=6;fontStyle=5;" vertex="1" parent="GUWvoCoq2w1GxgW7WVkz-3">
          <mxGeometry x="30" width="240" height="30" as="geometry">
            <mxRectangle width="240" height="30" as="alternateBounds" />
          </mxGeometry>
        </mxCell>
        <mxCell id="GUWvoCoq2w1GxgW7WVkz-6" value="" style="shape=tableRow;horizontal=0;startSize=0;swimlaneHead=0;swimlaneBody=0;fillColor=none;collapsible=0;dropTarget=0;points=[[0,0.5],[1,0.5]];portConstraint=eastwest;strokeColor=inherit;top=0;left=0;right=0;bottom=0;" vertex="1" parent="GUWvoCoq2w1GxgW7WVkz-2">
          <mxGeometry y="60" width="270" height="30" as="geometry" />
        </mxCell>
        <mxCell id="GUWvoCoq2w1GxgW7WVkz-7" value="" style="shape=partialRectangle;overflow=hidden;connectable=0;fillColor=none;strokeColor=inherit;top=0;left=0;bottom=0;right=0;" vertex="1" parent="GUWvoCoq2w1GxgW7WVkz-6">
          <mxGeometry width="30" height="30" as="geometry">
            <mxRectangle width="30" height="30" as="alternateBounds" />
          </mxGeometry>
        </mxCell>
        <mxCell id="GUWvoCoq2w1GxgW7WVkz-8" value="first_name VARCHAR(255) NOT NULL" style="shape=partialRectangle;overflow=hidden;connectable=0;fillColor=none;align=left;strokeColor=inherit;top=0;left=0;bottom=0;right=0;spacingLeft=6;" vertex="1" parent="GUWvoCoq2w1GxgW7WVkz-6">
          <mxGeometry x="30" width="240" height="30" as="geometry">
            <mxRectangle width="240" height="30" as="alternateBounds" />
          </mxGeometry>
        </mxCell>
        <mxCell id="GUWvoCoq2w1GxgW7WVkz-9" value="" style="shape=tableRow;horizontal=0;startSize=0;swimlaneHead=0;swimlaneBody=0;fillColor=none;collapsible=0;dropTarget=0;points=[[0,0.5],[1,0.5]];portConstraint=eastwest;strokeColor=inherit;top=0;left=0;right=0;bottom=0;" vertex="1" parent="GUWvoCoq2w1GxgW7WVkz-2">
          <mxGeometry y="90" width="270" height="30" as="geometry" />
        </mxCell>
        <mxCell id="GUWvoCoq2w1GxgW7WVkz-10" value="" style="shape=partialRectangle;overflow=hidden;connectable=0;fillColor=none;strokeColor=inherit;top=0;left=0;bottom=0;right=0;" vertex="1" parent="GUWvoCoq2w1GxgW7WVkz-9">
          <mxGeometry width="30" height="30" as="geometry">
            <mxRectangle width="30" height="30" as="alternateBounds" />
          </mxGeometry>
        </mxCell>
        <mxCell id="GUWvoCoq2w1GxgW7WVkz-11" value="last_name VARCHAR(255) NOT NULL" style="shape=partialRectangle;overflow=hidden;connectable=0;fillColor=none;align=left;strokeColor=inherit;top=0;left=0;bottom=0;right=0;spacingLeft=6;" vertex="1" parent="GUWvoCoq2w1GxgW7WVkz-9">
          <mxGeometry x="30" width="240" height="30" as="geometry">
            <mxRectangle width="240" height="30" as="alternateBounds" />
          </mxGeometry>
        </mxCell>
        <mxCell id="GUWvoCoq2w1GxgW7WVkz-12" value="" style="shape=tableRow;horizontal=0;startSize=0;swimlaneHead=0;swimlaneBody=0;fillColor=none;collapsible=0;dropTarget=0;points=[[0,0.5],[1,0.5]];portConstraint=eastwest;strokeColor=inherit;top=0;left=0;right=0;bottom=0;" vertex="1" parent="GUWvoCoq2w1GxgW7WVkz-2">
          <mxGeometry y="120" width="270" height="30" as="geometry" />
        </mxCell>
        <mxCell id="GUWvoCoq2w1GxgW7WVkz-13" value="" style="shape=partialRectangle;overflow=hidden;connectable=0;fillColor=none;strokeColor=inherit;top=0;left=0;bottom=0;right=0;" vertex="1" parent="GUWvoCoq2w1GxgW7WVkz-12">
          <mxGeometry width="30" height="30" as="geometry">
            <mxRectangle width="30" height="30" as="alternateBounds" />
          </mxGeometry>
        </mxCell>
        <mxCell id="GUWvoCoq2w1GxgW7WVkz-14" value="address VARCHAR(255) NOT NULL" style="shape=partialRectangle;overflow=hidden;connectable=0;fillColor=none;align=left;strokeColor=inherit;top=0;left=0;bottom=0;right=0;spacingLeft=6;" vertex="1" parent="GUWvoCoq2w1GxgW7WVkz-12">
          <mxGeometry x="30" width="240" height="30" as="geometry">
            <mxRectangle width="240" height="30" as="alternateBounds" />
          </mxGeometry>
        </mxCell>
        <mxCell id="GUWvoCoq2w1GxgW7WVkz-15" value="" style="shape=tableRow;horizontal=0;startSize=0;swimlaneHead=0;swimlaneBody=0;fillColor=none;collapsible=0;dropTarget=0;points=[[0,0.5],[1,0.5]];portConstraint=eastwest;strokeColor=inherit;top=0;left=0;right=0;bottom=0;" vertex="1" parent="GUWvoCoq2w1GxgW7WVkz-2">
          <mxGeometry y="150" width="270" height="30" as="geometry" />
        </mxCell>
        <mxCell id="GUWvoCoq2w1GxgW7WVkz-16" value="" style="shape=partialRectangle;overflow=hidden;connectable=0;fillColor=none;strokeColor=inherit;top=0;left=0;bottom=0;right=0;" vertex="1" parent="GUWvoCoq2w1GxgW7WVkz-15">
          <mxGeometry width="30" height="30" as="geometry">
            <mxRectangle width="30" height="30" as="alternateBounds" />
          </mxGeometry>
        </mxCell>
        <mxCell id="GUWvoCoq2w1GxgW7WVkz-17" value="email VARCHAR(255) NOT NULL" style="shape=partialRectangle;overflow=hidden;connectable=0;fillColor=none;align=left;strokeColor=inherit;top=0;left=0;bottom=0;right=0;spacingLeft=6;" vertex="1" parent="GUWvoCoq2w1GxgW7WVkz-15">
          <mxGeometry x="30" width="240" height="30" as="geometry">
            <mxRectangle width="240" height="30" as="alternateBounds" />
          </mxGeometry>
        </mxCell>
        <mxCell id="GUWvoCoq2w1GxgW7WVkz-57" value="transaction_detail" style="shape=table;startSize=30;container=1;collapsible=1;childLayout=tableLayout;fixedRows=1;rowLines=0;fontStyle=1;align=center;resizeLast=1;" vertex="1" parent="1">
          <mxGeometry x="-770" y="290" width="320" height="180" as="geometry" />
        </mxCell>
        <mxCell id="GUWvoCoq2w1GxgW7WVkz-64" value="" style="shape=tableRow;horizontal=0;startSize=0;swimlaneHead=0;swimlaneBody=0;fillColor=none;collapsible=0;dropTarget=0;points=[[0,0.5],[1,0.5]];portConstraint=eastwest;strokeColor=inherit;top=0;left=0;right=0;bottom=1;" vertex="1" parent="GUWvoCoq2w1GxgW7WVkz-57">
          <mxGeometry y="30" width="320" height="30" as="geometry" />
        </mxCell>
        <mxCell id="GUWvoCoq2w1GxgW7WVkz-65" value="PK" style="shape=partialRectangle;overflow=hidden;connectable=0;fillColor=none;strokeColor=inherit;top=0;left=0;bottom=0;right=0;fontStyle=1;" vertex="1" parent="GUWvoCoq2w1GxgW7WVkz-64">
          <mxGeometry width="30" height="30" as="geometry">
            <mxRectangle width="30" height="30" as="alternateBounds" />
          </mxGeometry>
        </mxCell>
        <mxCell id="GUWvoCoq2w1GxgW7WVkz-66" value="transaction_detail_id INT  AUTO_INCREMENT" style="shape=partialRectangle;overflow=hidden;connectable=0;fillColor=none;align=left;strokeColor=inherit;top=0;left=0;bottom=0;right=0;spacingLeft=6;fontStyle=5;" vertex="1" parent="GUWvoCoq2w1GxgW7WVkz-64">
          <mxGeometry x="30" width="290" height="30" as="geometry">
            <mxRectangle width="290" height="30" as="alternateBounds" />
          </mxGeometry>
        </mxCell>
        <mxCell id="GUWvoCoq2w1GxgW7WVkz-67" value="" style="shape=tableRow;horizontal=0;startSize=0;swimlaneHead=0;swimlaneBody=0;fillColor=none;collapsible=0;dropTarget=0;points=[[0,0.5],[1,0.5]];portConstraint=eastwest;strokeColor=inherit;top=0;left=0;right=0;bottom=0;" vertex="1" parent="GUWvoCoq2w1GxgW7WVkz-57">
          <mxGeometry y="60" width="320" height="30" as="geometry" />
        </mxCell>
        <mxCell id="GUWvoCoq2w1GxgW7WVkz-68" value="" style="shape=partialRectangle;overflow=hidden;connectable=0;fillColor=none;strokeColor=inherit;top=0;left=0;bottom=0;right=0;" vertex="1" parent="GUWvoCoq2w1GxgW7WVkz-67">
          <mxGeometry width="30" height="30" as="geometry">
            <mxRectangle width="30" height="30" as="alternateBounds" />
          </mxGeometry>
        </mxCell>
        <mxCell id="GUWvoCoq2w1GxgW7WVkz-69" value="product_quantity INT NOT NULL" style="shape=partialRectangle;overflow=hidden;connectable=0;fillColor=none;align=left;strokeColor=inherit;top=0;left=0;bottom=0;right=0;spacingLeft=6;" vertex="1" parent="GUWvoCoq2w1GxgW7WVkz-67">
          <mxGeometry x="30" width="290" height="30" as="geometry">
            <mxRectangle width="290" height="30" as="alternateBounds" />
          </mxGeometry>
        </mxCell>
        <mxCell id="GUWvoCoq2w1GxgW7WVkz-70" value="" style="shape=tableRow;horizontal=0;startSize=0;swimlaneHead=0;swimlaneBody=0;fillColor=none;collapsible=0;dropTarget=0;points=[[0,0.5],[1,0.5]];portConstraint=eastwest;strokeColor=inherit;top=0;left=0;right=0;bottom=0;" vertex="1" parent="GUWvoCoq2w1GxgW7WVkz-57">
          <mxGeometry y="90" width="320" height="30" as="geometry" />
        </mxCell>
        <mxCell id="GUWvoCoq2w1GxgW7WVkz-71" value="" style="shape=partialRectangle;overflow=hidden;connectable=0;fillColor=none;strokeColor=inherit;top=0;left=0;bottom=0;right=0;" vertex="1" parent="GUWvoCoq2w1GxgW7WVkz-70">
          <mxGeometry width="30" height="30" as="geometry">
            <mxRectangle width="30" height="30" as="alternateBounds" />
          </mxGeometry>
        </mxCell>
        <mxCell id="GUWvoCoq2w1GxgW7WVkz-72" value="product_price DECIMAL(10,2) NOT NULL" style="shape=partialRectangle;overflow=hidden;connectable=0;fillColor=none;align=left;strokeColor=inherit;top=0;left=0;bottom=0;right=0;spacingLeft=6;" vertex="1" parent="GUWvoCoq2w1GxgW7WVkz-70">
          <mxGeometry x="30" width="290" height="30" as="geometry">
            <mxRectangle width="290" height="30" as="alternateBounds" />
          </mxGeometry>
        </mxCell>
        <mxCell id="GUWvoCoq2w1GxgW7WVkz-112" value="" style="shape=tableRow;horizontal=0;startSize=0;swimlaneHead=0;swimlaneBody=0;fillColor=none;collapsible=0;dropTarget=0;points=[[0,0.5],[1,0.5]];portConstraint=eastwest;strokeColor=inherit;top=0;left=0;right=0;bottom=1;" vertex="1" parent="GUWvoCoq2w1GxgW7WVkz-57">
          <mxGeometry y="120" width="320" height="30" as="geometry" />
        </mxCell>
        <mxCell id="GUWvoCoq2w1GxgW7WVkz-113" value="PK" style="shape=partialRectangle;overflow=hidden;connectable=0;fillColor=none;strokeColor=inherit;top=0;left=0;bottom=0;right=0;fontStyle=1;" vertex="1" parent="GUWvoCoq2w1GxgW7WVkz-112">
          <mxGeometry width="30" height="30" as="geometry">
            <mxRectangle width="30" height="30" as="alternateBounds" />
          </mxGeometry>
        </mxCell>
        <mxCell id="GUWvoCoq2w1GxgW7WVkz-114" value="product_id INT NOT NULL" style="shape=partialRectangle;overflow=hidden;connectable=0;fillColor=none;align=left;strokeColor=inherit;top=0;left=0;bottom=0;right=0;spacingLeft=6;fontStyle=5;" vertex="1" parent="GUWvoCoq2w1GxgW7WVkz-112">
          <mxGeometry x="30" width="290" height="30" as="geometry">
            <mxRectangle width="290" height="30" as="alternateBounds" />
          </mxGeometry>
        </mxCell>
        <mxCell id="GUWvoCoq2w1GxgW7WVkz-118" value="" style="shape=tableRow;horizontal=0;startSize=0;swimlaneHead=0;swimlaneBody=0;fillColor=none;collapsible=0;dropTarget=0;points=[[0,0.5],[1,0.5]];portConstraint=eastwest;strokeColor=inherit;top=0;left=0;right=0;bottom=1;" vertex="1" parent="GUWvoCoq2w1GxgW7WVkz-57">
          <mxGeometry y="150" width="320" height="30" as="geometry" />
        </mxCell>
        <mxCell id="GUWvoCoq2w1GxgW7WVkz-119" value="PK" style="shape=partialRectangle;overflow=hidden;connectable=0;fillColor=none;strokeColor=inherit;top=0;left=0;bottom=0;right=0;fontStyle=1;" vertex="1" parent="GUWvoCoq2w1GxgW7WVkz-118">
          <mxGeometry width="30" height="30" as="geometry">
            <mxRectangle width="30" height="30" as="alternateBounds" />
          </mxGeometry>
        </mxCell>
        <mxCell id="GUWvoCoq2w1GxgW7WVkz-120" value="transaction_id INT NOT NULL" style="shape=partialRectangle;overflow=hidden;connectable=0;fillColor=none;align=left;strokeColor=inherit;top=0;left=0;bottom=0;right=0;spacingLeft=6;fontStyle=5;" vertex="1" parent="GUWvoCoq2w1GxgW7WVkz-118">
          <mxGeometry x="30" width="290" height="30" as="geometry">
            <mxRectangle width="290" height="30" as="alternateBounds" />
          </mxGeometry>
        </mxCell>
        <mxCell id="GUWvoCoq2w1GxgW7WVkz-121" value="" style="fontSize=12;html=1;endArrow=ERoneToMany;rounded=0;exitX=0;exitY=0.5;exitDx=0;exitDy=0;entryX=1;entryY=0.5;entryDx=0;entryDy=0;" edge="1" parent="1" source="GUWvoCoq2w1GxgW7WVkz-22" target="GUWvoCoq2w1GxgW7WVkz-112">
          <mxGeometry width="100" height="100" relative="1" as="geometry">
            <mxPoint x="-570" y="420" as="sourcePoint" />
            <mxPoint x="-470" y="320" as="targetPoint" />
          </mxGeometry>
        </mxCell>
        <mxCell id="GUWvoCoq2w1GxgW7WVkz-123" value="" style="fontSize=12;html=1;endArrow=ERoneToMany;rounded=0;exitX=0;exitY=0.5;exitDx=0;exitDy=0;entryX=1;entryY=0.5;entryDx=0;entryDy=0;edgeStyle=orthogonalEdgeStyle;" edge="1" parent="1" source="GUWvoCoq2w1GxgW7WVkz-3" target="GUWvoCoq2w1GxgW7WVkz-80">
          <mxGeometry width="100" height="100" relative="1" as="geometry">
            <mxPoint x="-570" y="290" as="sourcePoint" />
            <mxPoint x="-470" y="190" as="targetPoint" />
          </mxGeometry>
        </mxCell>
        <mxCell id="GUWvoCoq2w1GxgW7WVkz-124" value="" style="fontSize=12;html=1;endArrow=ERoneToMany;rounded=0;exitX=0.5;exitY=0;exitDx=0;exitDy=0;entryX=0.393;entryY=1.104;entryDx=0;entryDy=0;entryPerimeter=0;" edge="1" parent="1" source="GUWvoCoq2w1GxgW7WVkz-37" target="GUWvoCoq2w1GxgW7WVkz-83">
          <mxGeometry width="100" height="100" relative="1" as="geometry">
            <mxPoint x="-430" y="490" as="sourcePoint" />
            <mxPoint x="-330" y="390" as="targetPoint" />
          </mxGeometry>
        </mxCell>
        <mxCell id="GUWvoCoq2w1GxgW7WVkz-18" value="product" style="shape=table;startSize=30;container=1;collapsible=1;childLayout=tableLayout;fixedRows=1;rowLines=0;fontStyle=1;align=center;resizeLast=1;" vertex="1" parent="1">
          <mxGeometry x="-390" y="380" width="320" height="180" as="geometry" />
        </mxCell>
        <mxCell id="GUWvoCoq2w1GxgW7WVkz-22" value="" style="shape=tableRow;horizontal=0;startSize=0;swimlaneHead=0;swimlaneBody=0;fillColor=none;collapsible=0;dropTarget=0;points=[[0,0.5],[1,0.5]];portConstraint=eastwest;strokeColor=inherit;top=0;left=0;right=0;bottom=1;" vertex="1" parent="GUWvoCoq2w1GxgW7WVkz-18">
          <mxGeometry y="30" width="320" height="30" as="geometry" />
        </mxCell>
        <mxCell id="GUWvoCoq2w1GxgW7WVkz-23" value="PK" style="shape=partialRectangle;overflow=hidden;connectable=0;fillColor=none;strokeColor=inherit;top=0;left=0;bottom=0;right=0;fontStyle=1;" vertex="1" parent="GUWvoCoq2w1GxgW7WVkz-22">
          <mxGeometry width="30" height="30" as="geometry">
            <mxRectangle width="30" height="30" as="alternateBounds" />
          </mxGeometry>
        </mxCell>
        <mxCell id="GUWvoCoq2w1GxgW7WVkz-24" value="product_id INT  AUTO_INCREMENT" style="shape=partialRectangle;overflow=hidden;connectable=0;fillColor=none;align=left;strokeColor=inherit;top=0;left=0;bottom=0;right=0;spacingLeft=6;fontStyle=5;" vertex="1" parent="GUWvoCoq2w1GxgW7WVkz-22">
          <mxGeometry x="30" width="290" height="30" as="geometry">
            <mxRectangle width="290" height="30" as="alternateBounds" />
          </mxGeometry>
        </mxCell>
        <mxCell id="GUWvoCoq2w1GxgW7WVkz-25" value="" style="shape=tableRow;horizontal=0;startSize=0;swimlaneHead=0;swimlaneBody=0;fillColor=none;collapsible=0;dropTarget=0;points=[[0,0.5],[1,0.5]];portConstraint=eastwest;strokeColor=inherit;top=0;left=0;right=0;bottom=0;" vertex="1" parent="GUWvoCoq2w1GxgW7WVkz-18">
          <mxGeometry y="60" width="320" height="30" as="geometry" />
        </mxCell>
        <mxCell id="GUWvoCoq2w1GxgW7WVkz-26" value="" style="shape=partialRectangle;overflow=hidden;connectable=0;fillColor=none;strokeColor=inherit;top=0;left=0;bottom=0;right=0;" vertex="1" parent="GUWvoCoq2w1GxgW7WVkz-25">
          <mxGeometry width="30" height="30" as="geometry">
            <mxRectangle width="30" height="30" as="alternateBounds" />
          </mxGeometry>
        </mxCell>
        <mxCell id="GUWvoCoq2w1GxgW7WVkz-27" value="product_name VARCHAR(255) NOT NULL" style="shape=partialRectangle;overflow=hidden;connectable=0;fillColor=none;align=left;strokeColor=inherit;top=0;left=0;bottom=0;right=0;spacingLeft=6;" vertex="1" parent="GUWvoCoq2w1GxgW7WVkz-25">
          <mxGeometry x="30" width="290" height="30" as="geometry">
            <mxRectangle width="290" height="30" as="alternateBounds" />
          </mxGeometry>
        </mxCell>
        <mxCell id="GUWvoCoq2w1GxgW7WVkz-28" value="" style="shape=tableRow;horizontal=0;startSize=0;swimlaneHead=0;swimlaneBody=0;fillColor=none;collapsible=0;dropTarget=0;points=[[0,0.5],[1,0.5]];portConstraint=eastwest;strokeColor=inherit;top=0;left=0;right=0;bottom=0;" vertex="1" parent="GUWvoCoq2w1GxgW7WVkz-18">
          <mxGeometry y="90" width="320" height="30" as="geometry" />
        </mxCell>
        <mxCell id="GUWvoCoq2w1GxgW7WVkz-29" value="" style="shape=partialRectangle;overflow=hidden;connectable=0;fillColor=none;strokeColor=inherit;top=0;left=0;bottom=0;right=0;" vertex="1" parent="GUWvoCoq2w1GxgW7WVkz-28">
          <mxGeometry width="30" height="30" as="geometry">
            <mxRectangle width="30" height="30" as="alternateBounds" />
          </mxGeometry>
        </mxCell>
        <mxCell id="GUWvoCoq2w1GxgW7WVkz-30" value="product_price DECIMAL(10,2) NOT NULL" style="shape=partialRectangle;overflow=hidden;connectable=0;fillColor=none;align=left;strokeColor=inherit;top=0;left=0;bottom=0;right=0;spacingLeft=6;" vertex="1" parent="GUWvoCoq2w1GxgW7WVkz-28">
          <mxGeometry x="30" width="290" height="30" as="geometry">
            <mxRectangle width="290" height="30" as="alternateBounds" />
          </mxGeometry>
        </mxCell>
        <mxCell id="GUWvoCoq2w1GxgW7WVkz-31" value="" style="shape=tableRow;horizontal=0;startSize=0;swimlaneHead=0;swimlaneBody=0;fillColor=none;collapsible=0;dropTarget=0;points=[[0,0.5],[1,0.5]];portConstraint=eastwest;strokeColor=inherit;top=0;left=0;right=0;bottom=0;" vertex="1" parent="GUWvoCoq2w1GxgW7WVkz-18">
          <mxGeometry y="120" width="320" height="30" as="geometry" />
        </mxCell>
        <mxCell id="GUWvoCoq2w1GxgW7WVkz-32" value="" style="shape=partialRectangle;overflow=hidden;connectable=0;fillColor=none;strokeColor=inherit;top=0;left=0;bottom=0;right=0;" vertex="1" parent="GUWvoCoq2w1GxgW7WVkz-31">
          <mxGeometry width="30" height="30" as="geometry">
            <mxRectangle width="30" height="30" as="alternateBounds" />
          </mxGeometry>
        </mxCell>
        <mxCell id="GUWvoCoq2w1GxgW7WVkz-33" value="product_stock INT NOT NULL" style="shape=partialRectangle;overflow=hidden;connectable=0;fillColor=none;align=left;strokeColor=inherit;top=0;left=0;bottom=0;right=0;spacingLeft=6;" vertex="1" parent="GUWvoCoq2w1GxgW7WVkz-31">
          <mxGeometry x="30" width="290" height="30" as="geometry">
            <mxRectangle width="290" height="30" as="alternateBounds" />
          </mxGeometry>
        </mxCell>
        <mxCell id="GUWvoCoq2w1GxgW7WVkz-83" value="" style="shape=tableRow;horizontal=0;startSize=0;swimlaneHead=0;swimlaneBody=0;fillColor=none;collapsible=0;dropTarget=0;points=[[0,0.5],[1,0.5]];portConstraint=eastwest;strokeColor=inherit;top=0;left=0;right=0;bottom=1;" vertex="1" parent="GUWvoCoq2w1GxgW7WVkz-18">
          <mxGeometry y="150" width="320" height="30" as="geometry" />
        </mxCell>
        <mxCell id="GUWvoCoq2w1GxgW7WVkz-84" value="FK" style="shape=partialRectangle;overflow=hidden;connectable=0;fillColor=none;strokeColor=inherit;top=0;left=0;bottom=0;right=0;fontStyle=1;" vertex="1" parent="GUWvoCoq2w1GxgW7WVkz-83">
          <mxGeometry width="30" height="30" as="geometry">
            <mxRectangle width="30" height="30" as="alternateBounds" />
          </mxGeometry>
        </mxCell>
        <mxCell id="GUWvoCoq2w1GxgW7WVkz-85" value="category_id INT NOT NULL" style="shape=partialRectangle;overflow=hidden;connectable=0;fillColor=none;align=left;strokeColor=inherit;top=0;left=0;bottom=0;right=0;spacingLeft=6;fontStyle=5;" vertex="1" parent="GUWvoCoq2w1GxgW7WVkz-83">
          <mxGeometry x="30" width="290" height="30" as="geometry">
            <mxRectangle width="290" height="30" as="alternateBounds" />
          </mxGeometry>
        </mxCell>
        <mxCell id="GUWvoCoq2w1GxgW7WVkz-37" value="category" style="shape=table;startSize=30;container=1;collapsible=1;childLayout=tableLayout;fixedRows=1;rowLines=0;fontStyle=1;align=center;resizeLast=1;" vertex="1" parent="1">
          <mxGeometry x="-410" y="590" width="290" height="90" as="geometry" />
        </mxCell>
        <mxCell id="GUWvoCoq2w1GxgW7WVkz-38" value="" style="shape=tableRow;horizontal=0;startSize=0;swimlaneHead=0;swimlaneBody=0;fillColor=none;collapsible=0;dropTarget=0;points=[[0,0.5],[1,0.5]];portConstraint=eastwest;strokeColor=inherit;top=0;left=0;right=0;bottom=1;" vertex="1" parent="GUWvoCoq2w1GxgW7WVkz-37">
          <mxGeometry y="30" width="290" height="30" as="geometry" />
        </mxCell>
        <mxCell id="GUWvoCoq2w1GxgW7WVkz-39" value="PK" style="shape=partialRectangle;overflow=hidden;connectable=0;fillColor=none;strokeColor=inherit;top=0;left=0;bottom=0;right=0;fontStyle=1;" vertex="1" parent="GUWvoCoq2w1GxgW7WVkz-38">
          <mxGeometry width="30" height="30" as="geometry">
            <mxRectangle width="30" height="30" as="alternateBounds" />
          </mxGeometry>
        </mxCell>
        <mxCell id="GUWvoCoq2w1GxgW7WVkz-40" value="category_id INT  AUTO_INCREMENT" style="shape=partialRectangle;overflow=hidden;connectable=0;fillColor=none;align=left;strokeColor=inherit;top=0;left=0;bottom=0;right=0;spacingLeft=6;fontStyle=5;" vertex="1" parent="GUWvoCoq2w1GxgW7WVkz-38">
          <mxGeometry x="30" width="260" height="30" as="geometry">
            <mxRectangle width="260" height="30" as="alternateBounds" />
          </mxGeometry>
        </mxCell>
        <mxCell id="GUWvoCoq2w1GxgW7WVkz-41" value="" style="shape=tableRow;horizontal=0;startSize=0;swimlaneHead=0;swimlaneBody=0;fillColor=none;collapsible=0;dropTarget=0;points=[[0,0.5],[1,0.5]];portConstraint=eastwest;strokeColor=inherit;top=0;left=0;right=0;bottom=0;" vertex="1" parent="GUWvoCoq2w1GxgW7WVkz-37">
          <mxGeometry y="60" width="290" height="30" as="geometry" />
        </mxCell>
        <mxCell id="GUWvoCoq2w1GxgW7WVkz-42" value="" style="shape=partialRectangle;overflow=hidden;connectable=0;fillColor=none;strokeColor=inherit;top=0;left=0;bottom=0;right=0;" vertex="1" parent="GUWvoCoq2w1GxgW7WVkz-41">
          <mxGeometry width="30" height="30" as="geometry">
            <mxRectangle width="30" height="30" as="alternateBounds" />
          </mxGeometry>
        </mxCell>
        <mxCell id="GUWvoCoq2w1GxgW7WVkz-43" value="category_name VARCHAR(255) NOT NULL" style="shape=partialRectangle;overflow=hidden;connectable=0;fillColor=none;align=left;strokeColor=inherit;top=0;left=0;bottom=0;right=0;spacingLeft=6;" vertex="1" parent="GUWvoCoq2w1GxgW7WVkz-41">
          <mxGeometry x="30" width="260" height="30" as="geometry">
            <mxRectangle width="260" height="30" as="alternateBounds" />
          </mxGeometry>
        </mxCell>
        <mxCell id="GUWvoCoq2w1GxgW7WVkz-129" value="" style="edgeStyle=orthogonalEdgeStyle;fontSize=12;html=1;endArrow=ERoneToMany;rounded=0;" edge="1" parent="1" source="GUWvoCoq2w1GxgW7WVkz-48" target="GUWvoCoq2w1GxgW7WVkz-118">
          <mxGeometry width="100" height="100" relative="1" as="geometry">
            <mxPoint x="-530" y="530" as="sourcePoint" />
            <mxPoint x="-430" y="430" as="targetPoint" />
            <Array as="points">
              <mxPoint x="-540" y="138" />
              <mxPoint x="-810" y="138" />
              <mxPoint x="-810" y="550" />
              <mxPoint x="-610" y="550" />
            </Array>
          </mxGeometry>
        </mxCell>
        <mxCell id="GUWvoCoq2w1GxgW7WVkz-44" value="transaction" style="shape=table;startSize=30;container=1;collapsible=1;childLayout=tableLayout;fixedRows=1;rowLines=0;fontStyle=1;align=center;resizeLast=1;" vertex="1" parent="1">
          <mxGeometry x="-700" y="150" width="320" height="120" as="geometry" />
        </mxCell>
        <mxCell id="GUWvoCoq2w1GxgW7WVkz-48" value="" style="shape=tableRow;horizontal=0;startSize=0;swimlaneHead=0;swimlaneBody=0;fillColor=none;collapsible=0;dropTarget=0;points=[[0,0.5],[1,0.5]];portConstraint=eastwest;strokeColor=inherit;top=0;left=0;right=0;bottom=1;" vertex="1" parent="GUWvoCoq2w1GxgW7WVkz-44">
          <mxGeometry y="30" width="320" height="30" as="geometry" />
        </mxCell>
        <mxCell id="GUWvoCoq2w1GxgW7WVkz-49" value="PK" style="shape=partialRectangle;overflow=hidden;connectable=0;fillColor=none;strokeColor=inherit;top=0;left=0;bottom=0;right=0;fontStyle=1;" vertex="1" parent="GUWvoCoq2w1GxgW7WVkz-48">
          <mxGeometry width="30" height="30" as="geometry">
            <mxRectangle width="30" height="30" as="alternateBounds" />
          </mxGeometry>
        </mxCell>
        <mxCell id="GUWvoCoq2w1GxgW7WVkz-50" value="transaction_id INT  AUTO_INCREMENT" style="shape=partialRectangle;overflow=hidden;connectable=0;fillColor=none;align=left;strokeColor=inherit;top=0;left=0;bottom=0;right=0;spacingLeft=6;fontStyle=5;" vertex="1" parent="GUWvoCoq2w1GxgW7WVkz-48">
          <mxGeometry x="30" width="290" height="30" as="geometry">
            <mxRectangle width="290" height="30" as="alternateBounds" />
          </mxGeometry>
        </mxCell>
        <mxCell id="GUWvoCoq2w1GxgW7WVkz-51" value="" style="shape=tableRow;horizontal=0;startSize=0;swimlaneHead=0;swimlaneBody=0;fillColor=none;collapsible=0;dropTarget=0;points=[[0,0.5],[1,0.5]];portConstraint=eastwest;strokeColor=inherit;top=0;left=0;right=0;bottom=0;" vertex="1" parent="GUWvoCoq2w1GxgW7WVkz-44">
          <mxGeometry y="60" width="320" height="30" as="geometry" />
        </mxCell>
        <mxCell id="GUWvoCoq2w1GxgW7WVkz-52" value="" style="shape=partialRectangle;overflow=hidden;connectable=0;fillColor=none;strokeColor=inherit;top=0;left=0;bottom=0;right=0;" vertex="1" parent="GUWvoCoq2w1GxgW7WVkz-51">
          <mxGeometry width="30" height="30" as="geometry">
            <mxRectangle width="30" height="30" as="alternateBounds" />
          </mxGeometry>
        </mxCell>
        <mxCell id="GUWvoCoq2w1GxgW7WVkz-53" value="transaction_time TIMESTAMP NOT NULL DEFAULT CURRENT_TIMESTAMP" style="shape=partialRectangle;overflow=hidden;connectable=0;fillColor=none;align=left;strokeColor=inherit;top=0;left=0;bottom=0;right=0;spacingLeft=6;" vertex="1" parent="GUWvoCoq2w1GxgW7WVkz-51">
          <mxGeometry x="30" width="290" height="30" as="geometry">
            <mxRectangle width="290" height="30" as="alternateBounds" />
          </mxGeometry>
        </mxCell>
        <mxCell id="GUWvoCoq2w1GxgW7WVkz-80" value="" style="shape=tableRow;horizontal=0;startSize=0;swimlaneHead=0;swimlaneBody=0;fillColor=none;collapsible=0;dropTarget=0;points=[[0,0.5],[1,0.5]];portConstraint=eastwest;strokeColor=inherit;top=0;left=0;right=0;bottom=1;" vertex="1" parent="GUWvoCoq2w1GxgW7WVkz-44">
          <mxGeometry y="90" width="320" height="30" as="geometry" />
        </mxCell>
        <mxCell id="GUWvoCoq2w1GxgW7WVkz-81" value="FK" style="shape=partialRectangle;overflow=hidden;connectable=0;fillColor=none;strokeColor=inherit;top=0;left=0;bottom=0;right=0;fontStyle=1;" vertex="1" parent="GUWvoCoq2w1GxgW7WVkz-80">
          <mxGeometry width="30" height="30" as="geometry">
            <mxRectangle width="30" height="30" as="alternateBounds" />
          </mxGeometry>
        </mxCell>
        <mxCell id="GUWvoCoq2w1GxgW7WVkz-82" value="customer_id INT NOT NULL" style="shape=partialRectangle;overflow=hidden;connectable=0;fillColor=none;align=left;strokeColor=inherit;top=0;left=0;bottom=0;right=0;spacingLeft=6;fontStyle=5;" vertex="1" parent="GUWvoCoq2w1GxgW7WVkz-80">
          <mxGeometry x="30" width="290" height="30" as="geometry">
            <mxRectangle width="290" height="30" as="alternateBounds" />
          </mxGeometry>
        </mxCell>
      </root>
    </mxGraphModel>
  </diagram>
</mxfile>
